# xmcd CD database file
#
# Track frame offsets:
#	150
#	15033
#	38890
#	64786
#
# Disc length: 1195 seconds
#
# Revision: 1
# Processed by: cddbd v1.5.1PL0 Copyright (c) Steve Scherf et al.
# Submitted via: CDex 1.51
#
DISCID=2304a904
DTITLE=Triangle - ENHANCED UTOPIA
DYEAR=2005
DGENRE=Game
TTITLE0=KISS IN THE SWEET NIGHTS -Arrange Ver.-
TTITLE1=PRINCESS TEAR -Arrange Ver.-
TTITLE2=快楽の絆 -Arrange Ver.-
TTITLE3=DESTINY ANGEL
EXTD=YEAR: 2005
EXTT0=
EXTT1=
EXTT2=
EXTT3=
PLAYORDER=
